<svg id="ART_-_V2" data-name="ART - V2" xmlns="http://www.w3.org/2000/svg" viewBox="0 0 500 500"><path d="M422.69,194.71a183.35,183.35,0,0,0-64.87-90.4,181,181,0,0,0-215.64,0,183.35,183.35,0,0,0-64.87,90.4l-1.25,3.9H25V301.39H76.06l1.25,3.9a183.35,183.35,0,0,0,64.87,90.4,181,181,0,0,0,215.64,0,183.35,183.35,0,0,0,64.87-90.4l1.25-3.9H475V198.61H423.94ZM65.54,286H40.43V214h71.92V286H65.54ZM405,309A165.94,165.94,0,0,1,95,309l-2.9-7.62h35.72V198.61H92.06L95,191A165.94,165.94,0,0,1,405,191l2.9,7.62H372.22v43.67H334.47V165.53H165.53V334.47H334.47V257.72h37.75v43.67h35.72ZM250,206.19a43.81,43.81,0,1,0,42.17,55.62l1.15-4.09H319V319H181V181H319v61.32H293.32l-1.15-4.09A44,44,0,0,0,250,206.19ZM278.37,250A28.37,28.37,0,1,1,250,221.63,28.39,28.39,0,0,1,278.37,250Zm156.09-36h25.11V286H387.65V214h46.81Z"/></svg>