<svg id="ART_-_V2" data-name="ART - V2" xmlns="http://www.w3.org/2000/svg" viewBox="0 0 500 215"><path d="M219.77,58.21H241V70.62a26.43,26.43,0,0,1,9.15-11.14,22,22,0,0,1,12.5-3.8,23.18,23.18,0,0,1,10.06,2.53L265,79.5a17,17,0,0,0-7.16-2.17q-5.71,0-9.65,7.07t-3.94,27.72l.09,4.8v39.87H219.77Z"/><path d="M383.67,114.66H304.22a26.41,26.41,0,0,0,9.19,16.71q7.47,6.21,19.07,6.21a33,33,0,0,0,23.83-9.7l20.84,9.79A49.23,49.23,0,0,1,358.49,154q-10.87,5.31-25.83,5.3-23.19,0-37.78-14.63T280.3,108q0-22.56,14.54-37.46t36.47-14.9q23.28,0,37.87,14.9T383.76,110ZM358.94,95.18a24.78,24.78,0,0,0-9.67-13.41,28,28,0,0,0-16.74-5.17,29.63,29.63,0,0,0-18.15,5.8q-4.9,3.63-9.08,12.78Z"/><path d="M399.53,58.21H475l-44.29,77.65h41.75v20.93H392.73l44.5-77.65h-37.7Z"/><path d="M185.58,85.18a74,74,0,0,0-26.2-36.51,73.08,73.08,0,0,0-87.06,0,74,74,0,0,0-26.2,36.51l-.5,1.57H25v41.5H45.62l.5,1.57a74,74,0,0,0,26.2,36.51,73.08,73.08,0,0,0,87.06,0,74,74,0,0,0,26.2-36.51l.5-1.57H206.7V86.75H186.08ZM41.37,122H31.23V93h29v29H41.37Zm137.08,9.3a67,67,0,0,1-125.2,0l-1.17-3.07H66.5V86.75H52.08l1.17-3.07a67,67,0,0,1,125.2,0l1.17,3.07H165.2v17.63H150v-31H81.74v68.22H150v-31H165.2v17.63h14.42Zm-62.6-41.51a17.69,17.69,0,1,0,17,22.46l.46-1.65h10.39v24.76H88V79.62h55.76v24.76H133.34l-.46-1.65A17.76,17.76,0,0,0,115.85,89.81Zm11.46,17.69A11.46,11.46,0,1,1,115.85,96,11.47,11.47,0,0,1,127.31,107.5Zm63-14.52h10.14v29h-29V93h18.9Z"/></svg>