<?xml version="1.0" encoding="UTF-8" standalone="no"?>
<!-- Created with Inkscape (http://www.inkscape.org/) -->

<svg
   xmlns:dc="http://purl.org/dc/elements/1.1/"
   xmlns:cc="http://creativecommons.org/ns#"
   xmlns:rdf="http://www.w3.org/1999/02/22-rdf-syntax-ns#"
   xmlns:svg="http://www.w3.org/2000/svg"
   xmlns="http://www.w3.org/2000/svg"
   xmlns:sodipodi="http://sodipodi.sourceforge.net/DTD/sodipodi-0.dtd"
   xmlns:inkscape="http://www.inkscape.org/namespaces/inkscape"
   width="194.21486mm"
   height="201.93732mm"
   viewBox="0 0 688.16288 715.52593"
   id="svg2"
   version="1.1"
   inkscape:version="0.91 r13725"
   sodipodi:docname="rez_logo.svg"
   inkscape:export-filename="/Users/racheljohns/Desktop/rez_logo.png"
   inkscape:export-xdpi="149.24152"
   inkscape:export-ydpi="149.24152">
  <defs
     id="defs4" />
  <sodipodi:namedview
     id="base"
     pagecolor="#ffffff"
     bordercolor="#666666"
     borderopacity="1.0"
     inkscape:pageopacity="0.0"
     inkscape:pageshadow="2"
     inkscape:zoom="0.35"
     inkscape:cx="272.27202"
     inkscape:cy="152.07487"
     inkscape:document-units="px"
     inkscape:current-layer="layer4"
     showgrid="false"
     inkscape:window-width="1366"
     inkscape:window-height="669"
     inkscape:window-x="0"
     inkscape:window-y="0"
     inkscape:window-maximized="1"
     fit-margin-top="10"
     fit-margin-left="10"
     fit-margin-right="10"
     fit-margin-bottom="10" />
  <metadata
     id="metadata7">
    <rdf:RDF>
      <cc:Work
         rdf:about="">
        <dc:format>image/svg+xml</dc:format>
        <dc:type
           rdf:resource="http://purl.org/dc/dcmitype/StillImage" />
        <dc:title></dc:title>
      </cc:Work>
    </rdf:RDF>
  </metadata>
  <g
     inkscape:groupmode="layer"
     id="layer4"
     inkscape:label="Layer 2"
     style="display:inline"
     transform="translate(-23.981975,-23.993891)">
    <path
       style="fill:#ffb919;fill-opacity:1;fill-rule:evenodd;stroke:#000000;stroke-width:1px;stroke-linecap:butt;stroke-linejoin:miter;stroke-opacity:1"
       d="m 114.28571,318.07649 -18.571424,150 71.428574,138.57143 108.57143,62.85714 140,-1.42857 62.85714,-20 28.57143,-41.42857 -12.85715,-62.85714 110,-81.42858 L 645.71429,279.50506 561.42857,120.93363 382.85714,85.219347 218.57143,152.3622 Z"
       id="path4343"
       inkscape:connector-curvature="0" />
  </g>
  <g
     inkscape:label="Layer 1"
     inkscape:groupmode="layer"
     id="layer1"
     style="display:inline"
     transform="translate(-23.981975,-23.993891)">
    <path
       style="fill:#900000;fill-opacity:1"
       d="M 298.82984,702.20628 C 237.0087,694.28874 183.33125,667.99122 139.47613,624.13609 94.988961,579.64892 69.081202,526.25996 61.294452,463.02455 c -2.19687,-17.84058 -2.54295,-60.51162 -0.639,-78.78733 7.8793,-75.63204 37.875369,-141.31311 92.131998,-201.73738 60.0705,-66.89903 133.40621,-107.343284 218.08311,-120.271684 17.51955,-2.67487 70.61792,-3.75478 88.89708,-1.80798 63.08672,6.71897 114.84045,30.84866 154.64056,72.099724 32.73354,33.92687 50.08251,68.33354 59.48866,117.97854 2.68927,14.19373 3.78095,62.7405 1.80319,80.18668 -7.06474,62.31926 -31.83609,115.9471 -76.81061,166.28839 -18.07645,20.23348 -47.10858,42.45176 -72.65371,55.60187 l -9.06243,4.66515 6.2859,10.06084 c 7.78814,12.46524 16.18231,23.26234 19.84486,25.52571 6.50305,4.01874 9.70929,4.00424 20.07212,-0.0907 12.33243,-4.87334 15.71045,-4.20365 18.44041,3.65573 2.98651,8.59797 0.47715,11.62168 -29.31659,35.32567 -47.14336,37.5074 -107.75166,62.72793 -169.75152,70.63758 -18.60122,2.37305 -64.8675,2.2909 -83.91864,-0.14902 z M 405,646.87142 c 25.60571,-4.58588 46.8595,-12.04075 61.54374,-21.58679 12.37445,-8.04447 15.76311,-15.87229 12.19076,-28.16071 -2.95131,-10.15219 -4.88014,-13.69001 -39.73786,-72.8867 -17.20534,-29.21875 -32.68548,-55.9375 -34.40029,-59.375 -1.71482,-3.4375 -15.9323,-28.22581 -31.5944,-55.08515 l -28.47654,-48.83515 1.30513,-5.14181 1.30514,-5.14182 8.30716,-0.7643 c 47.79095,-4.39698 73.50649,-22.20701 83.98426,-58.16567 3.8549,-13.22965 4.8675,-43.3617 1.848,-54.9911 -4.19495,-16.15654 -13.74474,-28.47116 -27.95057,-36.0428 -10.01769,-5.33938 -20.50807,-7.4839 -38.85623,-7.94331 l -15.5317,-0.38889 -29.13309,152.5 c -16.02318,83.875 -29.1433,154.76546 -29.1558,157.53436 -0.0125,2.76891 0.79725,6.20503 1.79943,7.63584 2.40165,3.42884 12.56772,7.71309 23.63697,9.96124 11.54442,2.34466 15.10915,5.83652 14.19927,13.90904 -0.33837,3.00191 -0.93483,5.77763 -1.32547,6.16827 -0.39065,0.39065 -10.26161,0.004 -21.9355,-0.85914 -19.07021,-1.41005 -44.48376,-1.3047 -104.52241,0.43328 l -7.5,0.21711 -0.36932,-6.31734 c -0.47414,-8.11032 1.0791,-9.50459 14.39261,-12.91945 19.11679,-4.90337 28.98262,-11.12311 31.11401,-19.61524 0.41886,-1.66888 13.28515,-68.09366 28.59174,-147.61058 29.98432,-155.76695 29.09039,-149.5816 22.56181,-156.11018 -5.21701,-5.21701 -11.355,-5.93999 -43.47987,-5.12137 -22.7897,0.58072 -30.53213,1.19252 -33.31707,2.63266 -1.99541,1.03187 -7.96946,6.8116 -13.27566,12.84381 -46.90347,53.32114 -73.1566,111.46461 -80.53328,178.35915 -2.03287,18.43491 -1.72093,56.4511 0.59974,73.0896 7.1493,51.25833 28.1586,93.96887 63.71197,129.52227 32.95801,32.95803 72.55482,53.02297 118.36415,59.97881 18.33936,2.7847 72.11565,1.77364 91.63917,-1.72294 z M 515.18228,501.52813 c 16.78785,-6.19361 33.38926,-21.24261 48.50566,-43.96983 21.29039,-32.0097 34.78434,-67.00054 41.53215,-107.69608 1.79756,-10.84101 2.27174,-20.49356 2.24125,-45.625 -0.0345,-28.41327 -0.34806,-33.30041 -2.88749,-45 -7.22985,-33.30919 -19.16414,-57.9407 -40.38084,-83.34319 -26.52292,-31.75555 -61.67108,-52.74847 -103.42338,-61.77163 -15.24812,-3.2953 -55.11692,-4.65104 -73.43355,-2.49711 -46.72708,5.49481 -90.7163,23.237 -128.36389,51.77304 l -8.5278,6.46389 82.9028,0.70921 c 73.36247,0.62759 83.98167,0.96403 92.27781,2.9235 37.72183,8.90962 62.85051,30.39327 70.52814,60.29772 3.13094,12.19502 2.65762,34.92067 -1.03008,49.45798 -9.20143,36.27318 -36.4709,62.86967 -80.43706,78.45199 l -12.814,4.54149 37.58439,63.68406 c 20.92694,35.45921 39.6413,65.76956 42.22542,68.3896 7.16337,7.26291 19.35043,8.4308 33.50047,3.21036 z"
       id="path3505"
       inkscape:connector-curvature="0" />
  </g>
</svg>
